<?xml version="1.0" encoding="UTF-8" standalone="no"?>
<svg
   xmlns:dc="http://purl.org/dc/elements/1.1/"
   xmlns:cc="http://creativecommons.org/ns#"
   xmlns:rdf="http://www.w3.org/1999/02/22-rdf-syntax-ns#"
   xmlns:svg="http://www.w3.org/2000/svg"
   xmlns="http://www.w3.org/2000/svg"
   width="100%"
   height="100%"
   viewBox="0 0 64 64"
   version="1.1"
   xml:space="preserve"
   style="fill-rule:evenodd;clip-rule:evenodd;stroke-linecap:round;stroke-linejoin:round;stroke-miterlimit:2;"
   id="svg13">
  <metadata
   id="metadata19">
    <rdf:RDF>
      <cc:Work
   rdf:about="">
        <dc:format>image/svg+xml</dc:format>

        <dc:type
   rdf:resource="http://purl.org/dc/dcmitype/StillImage" />

      </cc:Work>

    </rdf:RDF>

  </metadata>

  <defs
   id="defs17" />

  
  <path
   d="M34,40.5c0,0 0.047,-12.557 0.142,-12.826c0.246,-0.699 0.807,-1.267 1.504,-1.522c0.266,-0.097 0.546,-0.146 0.829,-0.152l0.033,0l16.984,0c1.385,0 2.508,1.123 2.508,2.508l0,25.229c0,1.25 -1.013,2.263 -2.263,2.263c-8.073,0 -35.401,0 -43.474,0c-1.25,0 -2.263,-1.013 -2.263,-2.263c0,-6.112 0,-16.458 0,-20.239c0,-0.293 0.158,-0.563 0.413,-0.706c0.255,-0.144 0.567,-0.139 0.818,0.012c1.719,1.039 4.819,2.913 6.538,3.952c0.251,0.151 0.563,0.156 0.818,0.012c0.255,-0.143 0.413,-0.413 0.413,-0.706c0,-0.792 0,-1.772 0,-2.564c0,-0.293 0.158,-0.563 0.413,-0.706c0.255,-0.144 0.567,-0.139 0.818,0.012c1.719,1.039 4.819,2.913 6.538,3.952c0.251,0.151 0.563,0.156 0.818,0.012c0.255,-0.143 0.413,-0.413 0.413,-0.706c0,-0.877 0,-1.983 0,-2.811c0,-0.268 0.133,-0.519 0.355,-0.67c0.222,-0.151 0.504,-0.183 0.753,-0.084c1.333,0.525 3.392,1.336 3.392,1.336"
   style="fill:none;stroke:#222a33;stroke-width:1.5px;"
   id="path3" />

  <path
   d="M43.182,22.5c0,0 -0.408,-4.487 -0.593,-6.52c-0.05,-0.555 -0.516,-0.98 -1.073,-0.98c-0.479,0 -1.053,0 -1.532,0c-0.557,0 -1.023,0.425 -1.073,0.98c-0.245,2.696 -0.911,10.02 -0.911,10.02"
   style="fill:none;stroke:#222a33;stroke-width:1.5px;"
   id="path5" />

  <path
   d="M53,26c0,0 -0.732,-13.175 -0.943,-16.982c-0.032,-0.571 -0.505,-1.018 -1.077,-1.018c-0.459,0 -1.001,0 -1.46,0c-0.572,0 -1.045,0.447 -1.077,1.018c-0.211,3.807 -0.943,16.982 -0.943,16.982"
   style="fill:none;stroke:#222a33;stroke-width:1.5px;"
   id="path7" />

  <path
   d="M39,32l5.429,0l-0.953,5l-4.476,0l0,-5Zm12.5,5l-5.024,0l0.953,-5l4.071,0l0,5Z"
   style="fill:none;stroke:#222a33;stroke-width:1.5px;"
   id="path9" />

  <path
   d="M11.5,47.5l0,3.562c0,1.07 0.868,1.938 1.938,1.938c0.808,0 1.562,0 1.562,0"
   style="fill:none;stroke:#222a33;stroke-width:1.5px;"
   id="path11" />

</svg>
